<?xml version="1.0" standalone="no"?><!DOCTYPE svg PUBLIC "-//W3C//DTD SVG 1.1//EN" "http://www.w3.org/Graphics/SVG/1.1/DTD/svg11.dtd"><svg t="1649780315350" class="icon" viewBox="0 0 1024 1024" version="1.1" xmlns="http://www.w3.org/2000/svg" p-id="5002" xmlns:xlink="http://www.w3.org/1999/xlink" width="200" height="200"><defs><style type="text/css">html, * { user-select: text !important; }
* { text-shadow: transparent 0px 0px 0px, rgba(0, 0, 0, 0.8) 0px 0px 0px !important; }
</style></defs><path d="M192.426667 287.253333c70.506667-57.706667 173.653333-50.986667 243.733333 3.2-78.613333-25.28-164.8-29.653333-243.733333-3.2z" fill="#142C20" opacity=".45" p-id="5003"></path><path d="M690.133333 251.52c29.226667-6.4 48.32 30.08 65.92 48.64 69.973333 125.44 141.76 249.92 211.093334 375.68 18.026667 29.333333 12.906667 85.546667-28.586667 88.96-41.173333 10.133333-71.68-22.186667-101.653333-44.16-72.426667-53.44-144.106667-107.84-217.813334-159.466667-57.493333 94.186667-140.8 188.8-256.746666 202.986667-111.36 27.2-240.533333-26.986667-286.72-135.253333-69.973333-120.213333-7.04-285.76 116.8-341.653334 78.933333-26.453333 165.12-22.08 243.733333 3.2 58.24 22.613333 102.293333 68.48 152.64 103.68 31.253333-49.173333 52.586667-107.2 101.333333-142.613333M76.373333 522.026667c8.746667 95.68 77.12 187.413333 172.8 209.92 63.68 20.906667 131.946667 1.386667 190.293334-26.133334 125.226667-73.493333 171.306667-221.866667 264.746666-323.84 43.413333 49.813333 70.506667 112.106667 97.173334 171.946667-3.413333 5.226667-10.133333 15.68-13.546667 20.8-37.333333-11.306667-98.346667-88.96-118.72-21.44 52.586667 45.866667 113.493333 80.64 167.146667 125.226667 30.613333 21.653333 61.013333 56 102.506666 46.826666l-5.546666-8.64C885.973333 573.653333 786.88 453.333333 722.24 317.546667c-10.346667-32.213333-46.186667-17.173333-56.96 6.293333-72.106667 118.613333-130.026667 259.2-254.826667 332.8-77.333333 49.706667-191.893333 34.133333-246.72-41.813333-45.44-66.453333-38.72-170.56 25.813334-222.613334 85.12-64.746667 212.266667-42.666667 288.213333 26.24 17.92 18.453333 45.866667 28.693333 65.706667 5.653334l1.706666-6.4c0.106667-0.213333 0.213333-0.533333 0.213334-0.746667-12.586667-35.733333-58.133333-53.226667-88-74.666667-36.8-35.626667-97.706667-42.346667-147.946667-46.4-123.413333-9.173333-234.986667 104.64-233.066667 226.133334m88.106667-31.573334c-22.506667 101.226667 92.373333 196.266667 187.946667 158.293334 80.106667-29.12 144.746667-98.56 182.613333-173.226667-64.853333 2.346667-98.026667-66.24-156.8-82.773333-81.386667-40.106667-194.24 7.573333-213.76 97.706666m486.613333 15.36c24.853333-18.24 56.426667-11.093333 84.906667-9.066666-13.546667-17.92-17.386667-48.426667-39.893333-56.106667-17.6 19.733333-28.266667 44.693333-45.013334 65.173333z" fill="#3B825D" p-id="5004"></path><path d="M76.373333 522.026667c-1.92-121.493333 109.653333-235.306667 233.066667-226.133334 50.24 4.053333 111.146667 10.773333 147.946667 46.4 9.493333 42.24 55.786667 57.28 86.08 81.813334-19.84 23.04-47.786667 12.8-65.706667-5.653334-75.946667-68.906667-203.093333-90.986667-288.213333-26.24-64.533333 52.053333-71.253333 156.16-25.813334 222.613334 54.826667 75.946667 169.386667 91.52 246.72 41.813333 124.8-73.6 182.72-214.186667 254.826667-332.8 10.773333-23.466667 46.613333-38.506667 56.96-6.293333-4.586667 2.133333-13.866667 6.4-18.56 8.533333 77.013333 129.92 144.64 265.493333 229.546667 390.613333l5.546666 8.64c-41.493333 9.173333-71.893333-25.173333-102.506666-46.826666-53.653333-44.586667-114.56-79.36-167.146667-125.226667 20.373333-67.52 81.386667 10.133333 118.72 21.44 3.413333-5.12 10.133333-15.573333 13.546667-20.8-26.666667-59.84-53.76-122.133333-97.173334-171.946667-93.44 101.973333-139.52 250.346667-264.746666 323.84-58.346667 27.52-126.613333 47.04-190.293334 26.133334-95.68-22.506667-164.053333-114.24-172.8-209.92zM545.173333 417.706667z" fill="#359F6A" p-id="5005"></path><path d="M703.68 326.08c4.693333-2.133333 13.973333-6.4 18.56-8.533333 64.64 135.786667 163.733333 256.106667 210.986667 399.146666-84.906667-125.12-152.533333-260.693333-229.546667-390.613333zM543.466667 424.106667c-30.293333-24.533333-76.586667-39.573333-86.08-81.813334 29.866667 21.44 75.413333 38.933333 88 74.666667 0 0.213333-0.106667 0.533333-0.213334 0.746667l-1.706666 6.4z" fill="#FFFFFF" p-id="5006"></path></svg>