<?xml version="1.0" standalone="no"?><!DOCTYPE svg PUBLIC "-//W3C//DTD SVG 1.1//EN" "http://www.w3.org/Graphics/SVG/1.1/DTD/svg11.dtd"><svg t="1650013126790" class="icon" viewBox="0 0 1024 1024" version="1.1" xmlns="http://www.w3.org/2000/svg" p-id="34518" xmlns:xlink="http://www.w3.org/1999/xlink" width="200" height="200"><defs><style type="text/css">html, * { user-select: text !important; }
* { text-shadow: transparent 0px 0px 0px, rgba(0, 0, 0, 0.8) 0px 0px 0px !important; }
</style></defs><path d="M771.2 952.8H246.4c-25.6 0-46.4-20.8-46.4-46.4 0-12 4.8-23.2 12-31.2l184.8-200c8.8-9.6 21.6-15.2 34.4-15.2h154.4c12.8 0 24.8 5.6 33.6 15.2l184.8 200c17.6 18.4 16 48-2.4 65.6-8 8-19.2 12-30.4 12z" fill="#FFAD1F" p-id="34519"></path><path d="M512 71.2c-198.4 0-358.4 160-358.4 358.4s160 358.4 358.4 358.4 358.4-160 358.4-358.4v-0.8c0-197.6-160-357.6-358.4-357.6z" fill="#FDD64C" p-id="34520"></path><path d="M508.8 650.4C448 650.4 400 601.6 400 541.6h218.4c-0.8 59.2-49.6 108-109.6 108.8z" fill="#FFAD1F" p-id="34521"></path></svg>