<?xml version="1.0" standalone="no"?><!DOCTYPE svg PUBLIC "-//W3C//DTD SVG 1.1//EN" "http://www.w3.org/Graphics/SVG/1.1/DTD/svg11.dtd"><svg t="1650017319077" class="icon" viewBox="0 0 1129 1024" version="1.1" xmlns="http://www.w3.org/2000/svg" p-id="1100" xmlns:xlink="http://www.w3.org/1999/xlink" width="220.5078125" height="200"><defs><style type="text/css">* { text-shadow: transparent 0px 0px 0px, rgba(0, 0, 0, 0.8) 0px 0px 0px !important; }
html, * { user-select: text !important; }
</style></defs><path d="M283.68366013 98.0814595a66.30382617 66.30382617 0 0 1 56.35825158 0 137.91195758 137.91195758 0 0 1 34.47798981 25.19545359l132.60765234 116.03169497H601.9420246L734.54967612 123.27691309a139.2380343 139.2380343 0 0 1 34.4779898-25.19545359 66.30382617 66.30382617 0 0 1 88.18408878 55.03217487 66.30382617 66.30382617 0 0 1-14.58684229 44.42356356 370.63838672 370.63838672 0 0 1-29.17368291 26.52153031 191.61805655 191.61805655 0 0 1-18.56507163 15.24987982h82.87978271a140.56411102 140.56411102 0 0 1 97.46662418 43.76052521A141.22714939 141.22714939 0 0 1 1019.65612832 380.53575745v381.24699966a268.53049484 268.53049484 0 0 1-3.3151918 57.68432832 147.19449381 147.19449381 0 0 1-66.30382617 92.82535647 142.5532261 142.5532261 0 0 1-76.24939911 21.21722424H265.1185885a281.12822205 281.12822205 0 0 1-59.67344338-3.3151918 146.53145544 146.53145544 0 0 1-91.49927976-66.30382535A141.89018774 141.89018774 0 0 1 91.40256522 787.64124905V410.37247955A297.04114023 297.04114023 0 0 1 91.40256522 355.34030386a145.86841708 145.86841708 0 0 1 132.60765152-118.02081005h86.85801205c-13.9238031-9.94557376-25.85849195-21.88026261-38.45621915-32.48887472a66.30382617 66.30382617 0 0 1-21.21722424-54.36913734A66.30382617 66.30382617 0 0 1 283.68366013 98.0814595M268.4337803 355.34030386a66.30382617 66.30382617 0 0 0-52.38002307 47.73875456 89.51016467 89.51016467 0 0 0 0 25.19545357v313.61709678a66.30382617 66.30382617 0 0 0 45.74964029 66.30382617 87.52105042 87.52105042 0 0 0 28.51064539 4.64126769h539.05010476a66.30382617 66.30382617 0 0 0 62.98863437-39.1192575 92.82535647 92.82535647 0 0 0 6.63038278-43.76052521v-291.73683334a111.39042727 111.39042727 0 0 0 0-31.82583719 66.30382617 66.30382617 0 0 0-43.09748685-45.0866011 106.74915957 106.74915957 0 0 0-41.10837176-5.96734443H299.5965783a221.45477866 221.45477866 0 0 0-31.162798 0z m0 0" fill="#f14767" p-id="1101"></path><path d="M368.18352529 455.22589062a70.72408125 70.72408125 0 0 1 48.79961543 16.26653848 70.72408125 70.72408125 0 0 1 24.75342861 52.33582002v70.72408037a70.72408125 70.72408125 0 0 1-14.1448166 45.2634126 70.72408125 70.72408125 0 0 1-115.98749296-8.48689014 91.94130527 91.94130527 0 0 1-9.19413018-48.09237539v-70.72408037a70.72408125 70.72408125 0 0 1 61.5299502-59.40822832z m365.64349835 0a70.72408125 70.72408125 0 0 1 75.67476679 66.48063574v70.72408125a82.7471751 82.7471751 0 0 1-10.60861201 46.67789356 70.72408125 70.72408125 0 0 1-116.69473389 0 84.16165605 84.16165605 0 0 1-11.31585292-50.21409815v-70.72408036a70.72408125 70.72408125 0 0 1 61.52995019-62.23719112z m0 0" fill="#f14767" p-id="1102"></path></svg>