<?xml version="1.0" standalone="no"?><!DOCTYPE svg PUBLIC "-//W3C//DTD SVG 1.1//EN" "http://www.w3.org/Graphics/SVG/1.1/DTD/svg11.dtd"><svg t="1650017184088" class="icon" viewBox="0 0 1024 1024" version="1.1" xmlns="http://www.w3.org/2000/svg" p-id="967" xmlns:xlink="http://www.w3.org/1999/xlink" width="200" height="200"><defs><style type="text/css">html, * { user-select: text !important; }
* { text-shadow: transparent 0px 0px 0px, rgba(0, 0, 0, 0.8) 0px 0px 0px !important; }
</style></defs><path d="M212.40000031 301.29999969c66.10000031-54.10000031 162.79999969-47.80000031 228.49999969 3-73.69999969-23.7-154.5-27.79999969-228.49999969-3z" fill="#142C20" p-id="968"></path><path d="M678.99999969 267.8c27.40000031-6 45.3 28.2 61.8 45.6 65.59999969 117.6 132.9 234.3 197.90000062 352.2 16.90000031 27.49999969 12.10000031 80.20000031-26.80000031 83.4-38.59999969 9.49999969-67.2-20.80000031-95.29999969-41.4-67.90000031-50.1-135.10000031-101.1-204.20000062-149.50000031-53.89999969 88.30000031-132 177-240.69999938 190.30000031-104.4 25.5-225.49999969-25.30000031-268.8-126.79999969-65.59999969-112.69999969-6.6-267.9 109.5-320.30000062 73.99999969-24.79999969 154.8-20.7 228.49999969 3 54.6 21.19999969 95.89999969 64.2 143.1 97.2 29.29999969-46.09999969 49.30000031-100.5 94.99999969-133.69999969M103.59999969 521.40000031c8.20000031 89.7 72.3 175.69999969 162 196.8 59.7 19.60000031 123.70000031 1.30000031 178.40000062-24.50000062 117.40000031-68.89999969 160.60000031-208.00000031 248.19999938-303.6 40.69999969 46.69999969 66.10000031 105.10000031 91.10000062 161.20000031-3.19999969 4.90000031-9.49999969 14.7-12.70000031 19.5-34.99999969-10.60000031-92.20000031-83.4-111.3-20.1 49.30000031 43.00000031 106.39999969 75.6 156.70000031 117.40000031 28.69999969 20.29999969 57.19999969 52.5 96.09999938 43.89999938l-5.19999938-8.1C862.59999969 569.79999969 769.7 456.99999969 709.1 329.70000031c-9.70000031-30.19999969-43.30000031-16.09999969-53.4 5.89999969-67.60000031 111.19999969-121.90000031 243-238.90000031 312-72.49999969 46.60000031-179.89999969 31.99999969-231.3-39.19999969-42.6-62.29999969-36.3-159.9 24.20000062-208.70000062 79.8-60.70000031 199.00000031-40.00000031 270.19999969 24.6 16.8 17.29999969 43.00000031 26.89999969 61.60000031 5.30000062l1.59999938-6c0.10000031-0.19999969 0.19999969-0.49999969 0.20000062-0.70000031-11.80000031-33.49999969-54.49999969-49.90000031-82.5-70.00000031-34.5-33.40000031-91.60000031-39.70000031-138.70000031-43.5-115.69999969-8.59999969-220.30000031 98.1-218.50000031 212.00000062m82.60000031-29.60000062c-21.10000031 94.90000031 86.59999969 184.00000031 176.20000031 148.40000062 75.10000031-27.3 135.70000031-92.4 171.19999969-162.40000031-60.79999969 2.20000031-91.90000031-62.1-147-77.59999969-76.30000031-37.60000031-182.1 7.09999969-200.4 91.59999938m456.19999969 14.4c23.29999969-17.1 52.90000031-10.39999969 79.60000031-8.49999938-12.70000031-16.8-16.30000031-45.40000031-37.39999969-52.60000031-16.5 18.49999969-26.50000031 41.89999969-42.20000062 61.09999969z" fill="#3B825D" p-id="969"></path><path d="M103.59999969 521.40000031c-1.8-113.89999969 102.79999969-220.60000031 218.50000031-212.00000062 47.1 3.79999969 104.20000031 10.09999969 138.70000031 43.5 8.89999969 39.6 52.30000031 53.7 80.7 76.70000062-18.6 21.6-44.80000031 12-61.60000031-5.30000062-71.20000031-64.60000031-190.39999969-85.30000031-270.19999969-24.6-60.49999969 48.79999969-66.79999969 146.4-24.20000062 208.70000062 51.40000031 71.20000031 158.80000031 85.8 231.3 39.19999969 117-69 171.3-200.80000031 238.90000031-312 10.09999969-22.00000031 43.69999969-36.10000031 53.4-5.89999969-4.30000031 1.99999969-13.00000031 6-17.4 7.99999969 72.19999969 121.8 135.6 248.89999969 215.20000031 366.19999969l5.19999938 8.1c-38.89999969 8.59999969-67.39999969-23.59999969-96.09999938-43.89999938-50.29999969-41.80000031-107.4-74.4-156.70000031-117.40000031 19.09999969-63.3 76.30000031 9.49999969 111.3 20.1 3.19999969-4.8 9.49999969-14.59999969 12.70000031-19.5-25.00000031-56.1-50.4-114.49999969-91.10000062-161.20000031-87.6 95.59999969-130.8 234.70000031-248.19999938 303.6-54.70000031 25.8-118.69999969 44.1-178.40000062 24.50000062-89.7-21.10000031-153.79999969-107.1-162-196.8zM543.09999969 423.60000031z" fill="#359F6A" p-id="970"></path><path d="M691.7 337.7c4.39999969-1.99999969 13.09999969-6 17.4-7.99999969 60.6 127.30000031 153.49999969 240.10000031 197.80000031 374.19999938-79.60000031-117.3-142.99999969-244.39999969-215.20000031-366.19999969zM541.50000031 429.60000031c-28.39999969-22.99999969-71.80000031-37.09999969-80.7-76.70000062 28.00000031 20.1 70.69999969 36.49999969 82.5 70.00000031 0 0.19999969-0.10000031 0.49999969-0.20000062 0.70000031l-1.59999938 6z" fill="#FFFFFF" p-id="971"></path></svg>