<?xml version="1.0" standalone="no"?><!DOCTYPE svg PUBLIC "-//W3C//DTD SVG 1.1//EN" "http://www.w3.org/Graphics/SVG/1.1/DTD/svg11.dtd"><svg t="1650017069507" class="icon" viewBox="0 0 1024 1024" version="1.1" xmlns="http://www.w3.org/2000/svg" p-id="937" xmlns:xlink="http://www.w3.org/1999/xlink" width="200" height="200"><defs><style type="text/css">* { text-shadow: transparent 0px 0px 0px, rgba(0, 0, 0, 0.8) 0px 0px 0px !important; }
html, * { user-select: text !important; }
</style></defs><path d="M223.20000031 397.4a40.00000031 40.00000031 0 0 1-3 79.92 190.03999969 190.03999969 0 0 1-88.12000031-25.48000031 40.00000031 40.00000031 0 1 1 40.00000031-69.27999938c15.6 9.04000031 33.04000031 14.16 51.12 14.79999938z m40.95999938 142.03999969a40.00000031 40.00000031 0 1 1 22.52000062 76.8 183.36 183.36 0 0 1-51.76000031 7.24000031c-12.55999969 0-24.79999969-1.2-36.79999969-3.6a40.00000031 40.00000031 0 1 1 15.96-78.40000031c6.64000031 1.32 13.60000031 1.99999969 20.79999938 2.00000062 10.39999969 0 20.08000031-1.36000031 29.28-4.04000062z m582.04000031-148.11999938c-6.07999969 3.88000031-12.96 7.92-14.44000031 16.87999969C823.76 661.20000031 629.19999969 872 351.99999969 872c-72.07999969 0-172.72000031-25.60000031-221.19999938-65.23999969-11.23999969-9.19999969-18.79999969-19.72000031-18.80000062-37.56 0-25.48000031 20.32000031-47.11999969 46.68-47.12000062 37.92 0 115.44-37.8 167.92000031-80.95999969a40.00000031 40.00000031 0 1 1 50.80000031 61.75999969 531.04000031 531.04000031 0 0 1-122.00000062 74.60000062C287.79999969 786.39999969 323.64000031 792.00000031 351.99999969 792.00000031c236.80000031 0 400.00000031-182.23999969 400.00000031-400.00000031 0-19.08 4.56-28.87999969 33.6-50.28a600.40000031 600.40000031 0 0 1-30.79999969-32.95999969c-5.83999969-6.79999969-28.24000031-34.2-32.60000062-39.04000031-21.88000031-24.40000031-49.99999969-37.72000031-80.95999969-37.72000031-61.8 0-112.96000031 53.04-113.95999969 119.60000062l0.55999969 5.07999938a64.44 64.44 0 0 1-72.12 70.72000031c-123.6-15.52000031-217.44-70.72000031-295.27999969-170.83999969a40.00000031 40.00000031 0 1 1 63.12-49.12000031c61.2 78.64000031 130.99999969 122.28 223.87999969 137.92000031C451.59999969 238.32000031 536.43999969 152 641.24 152c54.40000031 0 103.92 23.4 140.56000031 64.32 5.76 6.48 28.92 34.72000031 33.72 40.32 14.56000031 16.96000031 24.28000031 29.59999969 35.88 34.72000031 11.59999969 5.16 46.36000031 2.71999969 56.31999938 22.39999969a40.00000031 40.00000031 0 0 1-17.67999938 53.76c-25.87999969 13.03999969-30.52000031 15.36-43.84000031 23.80000031z" fill="#1296db" p-id="938"></path></svg>